<svg xmlns="http://www.w3.org/2000/svg" viewBox="0 0 50 50" width="50" height="50">
	<style>
		tspan { white-space:pre }
		.shp0 { fill: none;stroke: #fe5621;stroke-width: 2 } 
		.shp1 { fill: #000000;stroke: #fe5621;stroke-width: 3 } 
	</style>
	<g id="reviews">
		<g id="arrows">
			<g id="2 - hover">
				<path id="br" class="shp0" d="M25 0C38.81 0 50 11.19 50 25C50 38.81 38.81 50 25 50C11.19 50 0 38.81 0 25C0 11.19 11.19 0 25 0Z" />
				<path id="http://www.flaticon.com/free-icon/play-symbol_26061" class="shp1" d="M31.69 24.27L22.51 15.29C22.11 14.89 21.44 14.89 21.04 15.29L20.3 16.01C19.89 16.41 19.89 17.06 20.3 17.46L27.99 24.99L20.3 32.53C19.89 32.93 19.89 33.57 20.3 33.97L21.04 34.7C21.44 35.1 22.11 35.1 22.51 34.7L31.69 25.71C32.09 25.31 32.09 24.67 31.69 24.27Z" />
			</g>
		</g>
	</g>
</svg>